# xmcd
#
# Track frame offsets: 
#        150
#        19600
#        41495
#        55750
#        85207
#        102405
#        123247
#        139647
#
# Disc length: 2205 seconds
#
# Revision: 6
# Processed by: cddbd v1.5.2PL0 Copyright (c) Steve Scherf et al.
# Submitted via: ExactAudioCopyFreeDBPlugin 1.0
#
DISCID=5e089b08
DTITLE=Muddy Waters - Electric Mud
DYEAR=1968
DGENRE=Blues
TTITLE0=I Just Want To Make Love To You
TTITLE1=I'm Your Hoochie Coochie Man
TTITLE2=Let's Spend the Night Together
TTITLE3=She's Alright
TTITLE4=Mannish Boy
TTITLE5=Herbert Harpers' Free Press News
TTITLE6=Tom Cat
TTITLE7=The Same Thing
EXTD=
EXTT0=
EXTT1=
EXTT2=
EXTT3=
EXTT4=
EXTT5=
EXTT6=
EXTT7=
PLAYORDER=
